<?xml version="1.0" encoding="utf-8"?>
<!-- Generator: Adobe Illustrator 19.0.0, SVG Export Plug-In . SVG Version: 6.00 Build 0)  -->
<svg version="1.1" id="Vrstva_1" xmlns="http://www.w3.org/2000/svg" xmlns:xlink="http://www.w3.org/1999/xlink" x="0px" y="0px"
	 viewBox="0 0 430 103" style="enable-background:new 0 0 430 103;" xml:space="preserve">
<style type="text/css">
	.st0{fill:#FFFFFF;}
	.st1{fill:url(#XMLID_24_);}
</style>
<g id="XMLID_157_">
	<path id="XMLID_2_" class="st0" d="M137.4,28v8.9c-3.6-2.1-7.7-3.2-12.1-3.2c-4.4,0-8.1,1.5-11.1,4.5c-3,3-4.4,7-4.4,12.1
		s1.5,9,4.4,12c3,3,6.8,4.5,11.6,4.5c4.6,0,8.4-1.2,11.7-3.6v9.1c-3,1.9-7.2,2.9-12.5,2.9c-7.2,0-13.1-2.3-17.8-6.8
		c-4.7-4.5-7-10.5-7-18c0-7.3,2.3-13.3,6.9-18c4.6-4.6,10.6-6.9,17.9-6.9C130.3,25.4,134.4,26.3,137.4,28z"/>
	<path id="XMLID_4_" class="st0" d="M143.9,50.1c0-7.5,2.1-13.6,6.2-18.1c4.2-4.6,9.7-6.8,16.7-6.8c7.1,0,12.6,2.3,16.8,6.8
		c4.1,4.5,6.2,10.6,6.2,18.2c0,7.5-2.1,13.5-6.2,18.1c-4.2,4.6-9.7,6.8-16.7,6.8c-7,0-12.5-2.3-16.7-6.8
		C146,63.6,143.9,57.6,143.9,50.1z M153.7,50.1c0,5.1,1.2,9.1,3.6,12.1c2.4,3,5.6,4.5,9.6,4.5c4.1,0,7.3-1.5,9.6-4.4
		c2.4-3,3.5-7,3.5-12.1c0-5.1-1.2-9.2-3.5-12.2c-2.4-3-5.6-4.5-9.7-4.5c-4.1,0-7.3,1.5-9.6,4.5C154.8,40.9,153.7,45,153.7,50.1z"/>
	<path id="XMLID_7_" class="st0" d="M197.9,26h15.8c7.2,0,13.2,2.2,17.8,6.7s6.9,10.1,6.9,16.9c0,7.4-2.2,13.5-6.7,18
		c-4.5,4.6-10.5,6.9-18,6.9h-15.8V26z M207.2,67h6.4c5.1,0,9-1.6,11.6-4.7c2.6-3.1,4-7.4,4-12.6c0-4.7-1.4-8.5-4.2-11.5
		c-2.8-3-6.6-4.5-11.5-4.5h-6.3V67z"/>
	<path id="XMLID_10_" class="st0" d="M255.7,67.1h19.8v7.4h-28.9V26h28.7v7.4h-19.5v13.2H273V54h-17.4V67.1z"/>
	<path id="XMLID_12_" class="st0" d="M295.1,26.5v18.8c2.5-3.8,6.1-5.7,10.5-5.7c4.4,0,7.9,1.7,10.7,5.1c2.8,3.4,4.1,7.7,4.1,13.1
		c0,4.9-1.3,9-3.9,12.3c-2.6,3.4-6.2,5.1-10.8,5.1c-4.7,0-8.3-1.9-10.7-5.6v5h-4.1V26.5H295.1z M298.3,67.9c2.1,2.2,4.7,3.2,7.6,3.2
		c2.9,0,5.4-1.2,7.3-3.7c1.9-2.5,2.9-5.7,2.9-9.7c0-4.6-1-8.1-3-10.6c-2-2.5-4.5-3.7-7.6-3.7c-1.1,0-2.2,0.2-3.3,0.6
		c-1.1,0.4-2.2,1.1-3.3,2.1c-1.1,1-2,2.4-2.7,4.3c-0.7,1.9-1.1,4.1-1.1,6.6C295.1,62.2,296.1,65.8,298.3,67.9z"/>
	<path id="XMLID_15_" class="st0" d="M342.4,75.2c-4.9,0-8.7-1.7-11.6-5c-2.9-3.4-4.3-7.6-4.3-12.6c0-5,1.5-9.3,4.4-12.7
		c2.9-3.4,6.8-5.2,11.4-5.2c5.1,0,9.1,1.7,11.9,5.1c2.8,3.4,4.3,7.6,4.3,12.8c0,5.1-1.4,9.4-4.3,12.7
		C351.4,73.5,347.4,75.2,342.4,75.2z M342.4,43.5c-3.6,0-6.4,1.4-8.4,4.1c-2,2.7-3.1,6-3.1,9.9c0,3.8,1.1,7,3.2,9.7
		c2.1,2.7,4.9,4,8.3,4c3.8,0,6.7-1.3,8.7-4c2.1-2.7,3.1-5.9,3.1-9.8c0-4-1-7.3-2.9-10C349.3,44.9,346.4,43.5,342.4,43.5z"/>
	<path id="XMLID_18_" class="st0" d="M380.5,75.2c-4.9,0-8.7-1.7-11.6-5c-2.9-3.4-4.3-7.6-4.3-12.6c0-5,1.5-9.3,4.4-12.7
		c2.9-3.4,6.8-5.2,11.4-5.2c5.1,0,9.1,1.7,11.9,5.1c2.8,3.4,4.3,7.6,4.3,12.8c0,5.1-1.4,9.4-4.3,12.7S385.6,75.2,380.5,75.2z
		 M380.5,43.5c-3.6,0-6.4,1.4-8.4,4.1c-2,2.7-3.1,6-3.1,9.9c0,3.8,1.1,7,3.2,9.7c2.1,2.7,4.9,4,8.3,4c3.8,0,6.7-1.3,8.7-4
		c2.1-2.7,3.1-5.9,3.1-9.8c0-4-1-7.3-2.9-10C387.5,44.9,384.5,43.5,380.5,43.5z"/>
	<path id="XMLID_21_" class="st0" d="M404.9,74.5V26.5h4.1v48.1H404.9z M415.1,56.5l14.6,18.1h-5.2l-14.4-18.1l14-16.4h5.1
		L415.1,56.5z"/>
</g>
<linearGradient id="XMLID_24_" gradientUnits="userSpaceOnUse" x1="0" y1="51.5" x2="77" y2="51.5">
	<stop  offset="0" style="stop-color:#F25C4A"/>
	<stop  offset="1" style="stop-color:#F79034"/>
</linearGradient>
<path id="XMLID_153_" class="st1" d="M12.1,87h16.2h1.3H77V0H12.1C5.9,0,0,3.8,0,10.1V91h0.8c0,0-0.8,0.1-0.8,0.3v0.1
	C0,97.7,5.9,103,12.1,103H77v-6H12.1C9.6,97,7,94,7,91.4v-0.1C7,88.8,9.6,87,12.1,87z M36.3,49.6l-3.4,5.6l-17.9-7v-6.7l17.9-7.1
	l2.9,5.3l-12.2,5.1L36.3,49.6z M43.2,39.8l2.1-5.3L62,41.5v6.7l-16.7,7L43,49.6l12.5-4.8L43.2,39.8z"/>
</svg>
